HIERARCHY
ROOT root
{
	OFFSET	0	13.1	24.9
	CHANNELS 6  Xposition Yposition Zposition Xrotation Yrotation Zrotation
	JOINT spine_1
	{
		OFFSET	0	9.99999	0
		CHANNELS 3  Xrotation Yrotation Zrotation
		JOINT spine_2
		{
			OFFSET	0	112	-10
			CHANNELS 3  Xrotation Yrotation Zrotation
			JOINT spine_3
			{
				OFFSET	0	206.5	19.3
				CHANNELS 3  Xrotation Yrotation Zrotation
				JOINT spine_4
				{
					OFFSET	0	110.4	14.6
					CHANNELS 3  Xrotation Yrotation Zrotation
					JOINT neck_1
					{
						OFFSET	0	71.8	-50.3
						CHANNELS 3  Xrotation Yrotation Zrotation
						JOINT neck_2
						{
							OFFSET	0	86.2	-25.8
							CHANNELS 3  Xrotation Yrotation Zrotation
							JOINT head_ee
							{
								OFFSET	0	179.8	-8.7
								CHANNELS 3  Xrotation Yrotation Zrotation
								End Site
								{
									OFFSET	1	0	0
								}
							}
						}
					}
					JOINT left_clavicle
					{
						OFFSET	-43.2	22.4	-70.8
						CHANNELS 3  Xrotation Yrotation Zrotation
						JOINT left_shoulder
						{
							OFFSET	-93.9	-5.79999	48.7
							CHANNELS 3  Xrotation Yrotation Zrotation
							JOINT left_elbow
							{
								OFFSET	-291.4	-30.8	15.2
								CHANNELS 3  Xrotation Yrotation Zrotation
								JOINT left_lowarm_twist
								{
									OFFSET	-110.7	-3.89999	13.6
									CHANNELS 3  Xrotation Yrotation Zrotation
									JOINT left_hand
									{
										OFFSET	-110.7	-3.89999	13.6
										CHANNELS 3  Xrotation Yrotation Zrotation
										JOINT left_ee
										{
											OFFSET	-80.8	-5.10001	12.1
											CHANNELS 3  Xrotation Yrotation Zrotation
											End Site
											{
												OFFSET	1	0	0
											}
										}
									}
								}
							}
						}
					}
					JOINT right_clavicle
					{
						OFFSET	43.2	22.4	-70.8
						CHANNELS 3  Xrotation Yrotation Zrotation
						JOINT right_shoulder
						{
							OFFSET	93.9	-5.79999	48.7
							CHANNELS 3  Xrotation Yrotation Zrotation
							JOINT right_elbow
							{
								OFFSET	291.4	-30.8	15.2
								CHANNELS 3  Xrotation Yrotation Zrotation
								JOINT right_lowarm_twist
								{
									OFFSET	110.7	-3.89999	13.6
									CHANNELS 3  Xrotation Yrotation Zrotation
									JOINT right_hand
									{
										OFFSET	110.7	-3.89999	13.6
										CHANNELS 3  Xrotation Yrotation Zrotation
										JOINT right_ee
										{
											OFFSET	80.8	-5.10001	12.1
											CHANNELS 3  Xrotation Yrotation Zrotation
											End Site
											{
												OFFSET	1	0	0
											}
										}
									}
								}
							}
						}
					}
				}
			}
		}
	}
	JOINT left_hip
	{
		OFFSET	-82.8	-127.5	0.300001
		CHANNELS 3  Xrotation Yrotation Zrotation
		JOINT left_knee
		{
			OFFSET	-28.2	-396.7	2.2
			CHANNELS 3  Xrotation Yrotation Zrotation
			JOINT left_ankle
			{
				OFFSET	-11.7	-411.3	35.4
				CHANNELS 3  Xrotation Yrotation Zrotation
				JOINT left_toes
				{
					OFFSET	0	-60	-88.6
					CHANNELS 3  Xrotation Yrotation Zrotation
					JOINT left_foot_ee
					{
						OFFSET	-22.5	-16.5	-42.2
						CHANNELS 3  Xrotation Yrotation Zrotation
						End Site
						{
							OFFSET	1	0	0
						}
					}
				}
			}
		}
	}
	JOINT right_hip
	{
		OFFSET	82.8	-127.5	0.300001
		CHANNELS 3  Xrotation Yrotation Zrotation
		JOINT right_knee
		{
			OFFSET	28.2	-396.7	2.2
			CHANNELS 3  Xrotation Yrotation Zrotation
			JOINT right_ankle
			{
				OFFSET	11.7	-411.3	35.4
				CHANNELS 3  Xrotation Yrotation Zrotation
				JOINT right_toes
				{
					OFFSET	0	-60	-88.6
					CHANNELS 3  Xrotation Yrotation Zrotation
					JOINT right_foot_ee
					{
						OFFSET	22.5	-16.5	-42.2
						CHANNELS 3  Xrotation Yrotation Zrotation
						End Site
						{
							OFFSET	1	0	0
						}
					}
				}
			}
		}
	}
}
MOTION
Frames: 13
Frame Time: 0.02
1187.11695953 733.355 -1730.51492338 19.3771956136 61.7054275253 -19.5983135763 -6.35466 -0.0711578 -0.556541 -6.35449 -0.0356 -0.559941 -6.35378 0.143787 -0.542335 -6.35418 0.0563324 -0.558237 10.9544 5.43548 1.62447 11.0279 7.32509 1.99917 -0.0 0.0 -0.0 11.0064 -6.65981 22.0281 -14.4427 -18.5034 54.4845 0.600577 -16.5683 0.0874457 -38.0893 -2.75029 3.92008 -2.16759 15.7836 -6.92467 -0.0 0.0 -0.0 7.47935 -4.09651 -14.4746 7.46619 25.3569 -51.7155 1.07167 27.962 -0.266828 59.3699 1.71815 7.0495 -3.09828 -22.6544 8.91812 0.0 0.0 0.0 19.3172 -27.1549 12.6959 -53.9728 -1.58549 7.82886 -5.95228 26.1841 0.92504 32.6996 -0.0 -0.0 -0.0 0.0 -0.0 7.57418 -25.9216 10.4379 -28.2573 -0.10686 -4.29138 18.3544 15.7844 2.74289 16.8834 -0.0 -0.0 0.0 0.0 0.0 
1166.9165467 735.563 -1742.90897505 22.3893077778 64.0366807969 -22.5997548186 -6.48302 -0.127414 -0.492886 -6.48289 -0.0957927 -0.499995 -6.48172 0.0688159 -0.504416 -6.48207 -0.0117097 -0.508953 11.0438 5.49718 1.80303 11.115 7.25104 2.21897 -0.0 0.0 -0.0 11.1057 -6.22808 22.2366 -14.2435 -18.1765 54.0736 0.503967 -14.0176 0.0619584 -37.8055 -2.72086 3.89863 -2.09931 16.0986 -6.34569 -0.0 0.0 -0.0 7.07451 -3.74422 -13.7048 8.18802 25.7938 -51.6512 1.13847 29.4204 -0.298897 59.2628 1.70873 7.03951 -2.97052 -22.249 8.39382 0.0 0.0 0.0 20.9457 -23.0083 10.8447 -53.1567 -1.50807 7.72976 -6.22055 26.4598 0.968637 32.544 -0.0 -0.0 -0.0 0.0 -0.0 5.14482 -25.4471 9.88483 -29.045 -0.0794573 -4.40916 18.8923 14.4303 2.78846 16.7924 -0.0 -0.0 0.0 0.0 0.0 
1166.61425861 735.563 -1742.67705671 22.4400625843 64.096519753 -22.6561927476 -6.48302 -0.127414 -0.492886 -6.48289 -0.0957927 -0.499995 -6.48172 0.0688159 -0.504416 -6.48207 -0.0117097 -0.508953 11.0438 5.49718 1.80303 11.115 7.25104 2.21897 -0.0 0.0 -0.0 11.1057 -6.22808 22.2366 -14.2435 -18.1765 54.0736 0.503967 -14.0176 0.0619584 -37.8055 -2.72086 3.89863 -2.09931 16.0986 -6.34569 -0.0 0.0 -0.0 7.07451 -3.74422 -13.7048 8.18802 25.7938 -51.6512 1.13847 29.4204 -0.298897 59.2628 1.70873 7.03951 -2.97052 -22.249 8.39382 0.0 0.0 0.0 20.9457 -23.0083 10.8447 -53.1567 -1.50807 7.72976 -6.22055 26.4598 0.968637 32.544 -0.0 -0.0 -0.0 0.0 -0.0 5.14482 -25.4471 9.88483 -29.045 -0.0794573 -4.40916 18.8923 14.4303 2.78846 16.7924 -0.0 -0.0 0.0 0.0 0.0 
1150.01000804 738.22 -1745.44279885 22.6078176276 66.2941462184 -23.3853992471 -6.53878 -0.225553 -0.358365 -6.53873 -0.202293 -0.371991 -6.5372 -0.0725707 -0.417173 -6.53742 -0.137544 -0.400476 11.424 5.26018 2.32902 11.4768 6.34034 2.87188 -0.0 0.0 -0.0 11.177 -6.56811 22.4001 -14.6313 -17.4921 53.6232 0.374643 -10.5139 0.0344709 -36.709 -2.60816 3.81442 -1.82476 15.2957 -5.03599 -0.0 0.0 -0.0 7.11338 -5.80302 -13.7333 8.25955 26.2759 -51.3145 1.58004 38.0477 -0.544817 58.2091 1.61711 6.94028 -3.01098 -22.0214 8.75811 0.0 0.0 0.0 22.6983 -21.4183 10.8464 -53.7449 -1.56372 7.80129 -6.41361 23.2662 0.982901 32.5346 -0.0 -0.0 -0.0 0.0 -0.0 3.16456 -23.1659 8.8709 -26.4199 -0.164461 -4.01527 17.8055 16.7362 2.68753 16.2388 -0.0 -0.0 0.0 0.0 0.0 
1128.62448394 734.441 -1754.57734209 22.5812426278 67.2768766337 -23.3898998311 -6.59386 0.120525 -0.368666 -6.59379 0.14374 -0.360249 -6.59465 0.251796 -0.295025 -6.59472 0.202043 -0.331089 12.0406 5.12633 2.90453 12.0813 5.52554 3.59738 -0.0 0.0 -0.0 11.1691 -7.55855 22.4001 -16.0986 -16.4881 54.4343 0.350939 -9.86222 0.0302781 -35.6736 -2.50324 3.73294 -1.06338 14.8214 -0.535304 -0.0 0.0 -0.0 7.59179 -5.73878 -14.6376 7.05753 26.2483 -49.4604 1.92428 43.6237 -0.770179 57.8923 1.58991 6.91012 -2.59345 -20.2038 7.26021 0.0 0.0 0.0 24.7567 -17.4689 9.61966 -49.8031 -1.20507 7.31146 -8.79153 24.6919 1.36136 31.805 -0.0 -0.0 -0.0 0.0 -0.0 0.713164 -28.0421 7.72574 -21.9049 -0.268144 -3.33035 21.7057 11.21 3.09369 16.2518 -0.0 -0.0 0.0 0.0 0.0 
1109.36357178 730.876 -1757.33754365 20.0281074317 66.1847118841 -21.3226192401 -6.06567 0.341017 -0.231946 -6.06571 0.355085 -0.209776 -6.0672 0.402842 -0.088373 -6.06701 0.383829 -0.150886 11.0187 3.50978 -0.325123 11.0825 5.99528 -0.406237 -0.0 0.0 -0.0 10.9673 -7.28405 21.9523 -16.8038 -15.9795 56.1735 0.191469 -5.41831 0.00906015 -35.8184 -2.51783 3.74445 -0.750078 16.0239 1.91873 -0.0 0.0 -0.0 7.54882 -3.83789 -14.6152 8.60336 27.014 -47.9494 1.90261 43.2999 -0.755273 58.6535 1.65553 6.98234 -2.22155 -18.124 6.08665 0.0 0.0 0.0 28.2311 -15.1305 8.45801 -38.859 -0.395777 5.83789 -11.2135 21.5229 1.71716 31.8154 -0.0 -0.0 -0.0 0.0 -0.0 -2.09488 -33.5026 7.49898 -14.9093 -0.321531 -2.25897 20.5059 13.544 2.98366 15.9235 -0.0 -0.0 0.0 0.0 0.0 
1087.36304642 731.621 -1758.53953909 15.6999492666 65.654812228 -17.8115738718 -5.91202 0.565764 0.0626565 -5.9122 0.560631 0.0985317 -5.91147 0.502542 0.267335 -5.91116 0.538456 0.184611 9.97514 2.37237 -2.65576 10.0855 6.3231 -3.22552 -0.0 0.0 -0.0 10.7873 -6.30327 21.543 -18.2473 -15.2423 56.6912 0.208827 -5.90621 0.0107728 -36.0291 -2.53909 3.76112 -0.291702 16.8903 5.08865 -0.0 0.0 -0.0 7.85083 -2.2359 -15.2443 9.53624 27.0901 -45.7928 1.88686 43.0623 -0.744495 59.2072 1.70386 7.03432 -1.63605 -14.4023 4.28547 0.0 0.0 0.0 29.8945 -15.5433 7.9712 -32.1032 -0.0422195 4.86264 -13.3224 21.8296 2.04726 32.6977 -0.0 -0.0 -0.0 0.0 -0.0 -2.21091 -43.042 8.07048 -7.99751 -0.245731 -1.20178 21.7066 11.3442 3.09618 15.9827 -0.0 -0.0 0.0 0.0 0.0 
1064.99644945 728.655 -1759.72170611 14.0743374308 65.638912043 -15.9993921568 -5.84152 0.769682 0.32148 -5.84178 0.747666 0.369808 -5.837 0.597136 0.582405 -5.83682 0.68162 0.480789 9.26972 1.69884 -4.01037 9.41701 6.45879 -4.83064 -0.0 0.0 -0.0 10.6237 -5.62911 21.1744 -19.2719 -14.7041 56.897 0.223454 -6.31665 0.01233 -36.2916 -2.56569 3.7818 0.0686284 17.5181 7.54308 -0.0 0.0 -0.0 8.07054 -0.991788 -15.7084 10.1508 27.1389 -44.5058 1.87803 42.9283 -0.738475 59.706 1.74782 7.08074 -1.24255 -11.8444 2.98703 0.0 0.0 0.0 30.5575 -16.0831 7.80796 -27.2476 0.139608 4.13988 -15.0857 22.21 2.32555 33.3115 -0.0 -0.0 -0.0 0.0 -0.0 -3.27606 -50.0531 7.00214 -3.24651 -0.119989 -0.483723 22.8167 9.30468 3.19973 16.0646 -0.0 -0.0 0.0 0.0 0.0 
1044.52539956 726.641 -1767.79693801 14.1891364421 66.1312766182 -15.5360419738 -6.02055 0.51797 0.435897 -6.02058 0.489183 0.467973 -6.01628 0.319098 0.597054 -6.01655 0.409386 0.539168 7.7448 0.928305 -5.31127 7.92298 6.33119 -6.27775 -0.0 0.0 -0.0 10.6045 -3.73465 21.0813 -20.7235 -14.3982 56.2588 0.303533 -8.55121 0.0226929 -36.6688 -2.60406 3.81129 0.64189 18.0474 11.2665 -0.0 0.0 -0.0 8.11203 -2.0669 -15.7632 8.36065 26.6086 -43.7766 2.42517 50.2186 -1.13665 59.6459 1.7425 7.07517 -0.729133 -7.27829 1.70727 0.0 0.0 0.0 30.6729 -19.2936 8.10214 -25.1067 0.200181 3.81692 -16.5053 25.3299 2.5847 34.3359 -0.0 -0.0 -0.0 0.0 -0.0 -2.07304 -55.8041 9.48668 -6.19128 -0.204951 -0.927615 27.4836 8.97525 3.74661 17.7988 -0.0 -0.0 0.0 0.0 0.0 
1040.04157234 726.641 -1762.69875141 14.6987406318 66.9890632136 -16.0914657584 -6.02055 0.51797 0.435897 -6.02058 0.489183 0.467973 -6.01628 0.319098 0.597054 -6.01655 0.409386 0.539168 7.7448 0.928305 -5.31127 7.92298 6.33119 -6.27775 -0.0 0.0 -0.0 10.6045 -3.73465 21.0813 -20.7235 -14.3982 56.2588 0.303533 -8.55121 0.0226929 -36.6688 -2.60406 3.81129 0.64189 18.0474 11.2665 -0.0 0.0 -0.0 8.11203 -2.0669 -15.7632 8.36065 26.6086 -43.7766 2.42517 50.2186 -1.13665 59.6459 1.7425 7.07517 -0.729133 -7.27829 1.70727 0.0 0.0 0.0 30.6729 -19.2936 8.10214 -25.1067 0.200181 3.81692 -16.5053 25.3299 2.5847 34.3359 -0.0 -0.0 -0.0 0.0 -0.0 -2.07304 -55.8041 9.48668 -6.19128 -0.204951 -0.927615 27.4836 8.97525 3.74661 17.7988 -0.0 -0.0 0.0 0.0 0.0 
1018.12425652 716.734 -1765.54353984 17.8058355717 67.629014133 -19.0028584374 -5.99761 0.359793 0.664496 -5.99742 0.316781 0.686043 -5.99293 0.087647 0.750546 -5.99366 0.205079 0.727287 6.67592 0.356219 -6.18589 6.8753 6.11045 -7.22699 -0.0 0.0 -0.0 10.6253 -2.57718 21.0822 -21.1655 -13.8805 56.3346 0.325799 -9.16818 0.0261222 -36.7204 -2.60932 3.8153 1.10521 18.8073 14.4039 -0.0 0.0 -0.0 8.04982 1.16076 -15.7038 7.46002 26.0472 -42.9387 2.62678 52.4486 -1.29409 59.6255 1.7407 7.07328 -0.403477 -4.18095 0.906768 0.0 0.0 0.0 30.5176 -21.5151 8.23903 -18.7376 0.308525 2.84609 -22.0553 28.4395 3.5249 33.8321 -0.0 -0.0 -0.0 0.0 -0.0 -1.52485 -60.1401 12.6968 -7.74119 -0.240471 -1.1628 30.9928 7.0624 4.09915 19.2555 -0.0 -0.0 0.0 0.0 0.0 
1014.43692762 716.734 -1760.98927782 18.3688120076 68.3262225629 -19.6101319351 -5.99761 0.359793 0.664496 -5.99742 0.316781 0.686043 -5.99293 0.087647 0.750546 -5.99366 0.205079 0.727287 6.67592 0.356219 -6.18589 6.8753 6.11045 -7.22699 -0.0 0.0 -0.0 10.6253 -2.57718 21.0822 -21.1655 -13.8805 56.3346 0.325799 -9.16818 0.0261222 -36.7204 -2.60932 3.8153 1.10521 18.8073 14.4039 -0.0 0.0 -0.0 8.04982 1.16076 -15.7038 7.46002 26.0472 -42.9387 2.62678 52.4486 -1.29409 59.6255 1.7407 7.07328 -0.403477 -4.18095 0.906768 0.0 0.0 0.0 30.5176 -21.5151 8.23903 -18.7376 0.308525 2.84609 -22.0553 28.4395 3.5249 33.8321 -0.0 -0.0 -0.0 0.0 -0.0 -1.52485 -60.1401 12.6968 -7.74119 -0.240471 -1.1628 30.9928 7.0624 4.09915 19.2555 -0.0 -0.0 0.0 0.0 0.0 
1010.54136195 716.734 -1756.04502435 19.0164317093 69.0725288107 -20.305220234 -5.99761 0.359793 0.664496 -5.99742 0.316781 0.686043 -5.99293 0.087647 0.750546 -5.99366 0.205079 0.727287 6.67592 0.356219 -6.18589 6.8753 6.11045 -7.22699 -0.0 0.0 -0.0 10.6253 -2.57718 21.0822 -21.1655 -13.8805 56.3346 0.325799 -9.16818 0.0261222 -36.7204 -2.60932 3.8153 1.10521 18.8073 14.4039 -0.0 0.0 -0.0 8.04982 1.16076 -15.7038 7.46002 26.0472 -42.9387 2.62678 52.4486 -1.29409 59.6255 1.7407 7.07328 -0.403477 -4.18095 0.906768 0.0 0.0 0.0 30.5176 -21.5151 8.23903 -18.7376 0.308525 2.84609 -22.0553 28.4395 3.5249 33.8321 -0.0 -0.0 -0.0 0.0 -0.0 -1.52485 -60.1401 12.6968 -7.74119 -0.240471 -1.1628 30.9928 7.0624 4.09915 19.2555 -0.0 -0.0 0.0 0.0 0.0 
